<svg width="23" height="24" viewBox="0 0 23 24" fill="none" xmlns="http://www.w3.org/2000/svg">
<path d="M16.8898 0.996041C18.1619 -0.332014 20.2261 -0.332014 21.4982 0.996041L22.046 1.56851C23.318 2.8967 23.318 5.05006 22.046 6.37731L13.1189 15.6964C12.7251 16.1026 12.2407 16.4002 11.7065 16.5608L7.17965 17.9116C6.79939 18.025 6.39197 17.9116 6.1113 17.581C5.83516 17.3307 5.72652 16.9056 5.83516 16.5088L7.12985 11.7855C7.28377 11.2282 7.56896 10.7228 7.95827 10.3118L16.8898 0.996041ZM19.9228 2.59913C19.5381 2.15656 18.85 2.15656 18.4244 2.59913L17.1071 3.97315L19.194 6.15059L20.5113 4.7336C20.9369 4.33212 20.9369 3.61417 20.5113 3.1716L19.9228 2.59913ZM9.22128 12.409L8.46076 15.1721L11.109 14.3786C11.2901 14.3267 11.4485 14.2275 11.5798 14.0905L17.6594 7.7518L15.5725 5.57435L9.49742 11.9178C9.36614 12.0547 9.27107 12.2201 9.22128 12.409ZM9.05378 2.83955C9.65586 2.83955 10.1402 3.34731 10.1402 3.97315C10.1402 4.60135 9.65586 5.10674 9.05378 5.10674H3.98366C2.98367 5.10674 2.17291 5.95222 2.17291 6.99607V19.8435C2.17291 20.8873 2.98367 21.7328 3.98366 21.7328H16.2968C17.2972 21.7328 18.1076 20.8873 18.1076 19.8435V14.5534C18.1076 13.9252 18.5919 13.4198 19.194 13.4198C19.7961 13.4198 20.2805 13.9252 20.2805 14.5534V19.8435C20.2805 22.139 18.4969 24 16.2968 24H3.98366C1.78359 24 0 22.139 0 19.8435V6.99607C0 4.70054 1.78359 2.83955 3.98366 2.83955H9.05378Z" fill="#5B8796"/>
</svg>
