<svg width="214" height="27" viewBox="0 0 214 27" fill="none" xmlns="http://www.w3.org/2000/svg">
<path d="M7.16366 1.51039H2.48351C1.83732 1.51039 1.31348 2.00965 1.31348 2.62552V24.9282C1.31348 25.544 1.83732 26.0433 2.48351 26.0433H7.16366C7.80985 26.0433 8.3337 25.544 8.3337 24.9282V2.62552C8.3337 2.00965 7.80985 1.51039 7.16366 1.51039Z" stroke="#FBBE65" stroke-width="1.5" stroke-linecap="round" stroke-linejoin="round"/>
<path d="M1.31348 7.08605H8.3337" stroke="#FBBE65" stroke-width="1.5" stroke-linecap="round" stroke-linejoin="round"/>
<path d="M14.1842 1.51039H9.50402C8.85783 1.51039 8.33398 2.00965 8.33398 2.62552V24.9282C8.33398 25.544 8.85783 26.0433 9.50402 26.0433H14.1842C14.8304 26.0433 15.3542 25.544 15.3542 24.9282V2.62552C15.3542 2.00965 14.8304 1.51039 14.1842 1.51039Z" stroke="#FBBE65" stroke-width="1.5" stroke-linecap="round" stroke-linejoin="round"/>
<path d="M25.771 26.1375H37.9998" stroke="#FBBE65" stroke-width="1.5" stroke-linecap="round" stroke-linejoin="round"/>
<path d="M21.1356 1.14546L16.5959 2.3052C15.9691 2.46532 15.5971 3.07941 15.7651 3.67681L21.8493 25.3104C22.0173 25.9078 22.6617 26.2622 23.2885 26.1021L27.8282 24.9424C28.455 24.7823 28.827 24.1682 28.659 23.5708L22.5748 1.9372C22.4068 1.33981 21.7624 0.985333 21.1356 1.14546Z" stroke="#FBBE65" stroke-width="1.5" stroke-linecap="round" stroke-linejoin="round"/>
<path d="M20.502 20.9137L27.2882 19.1713" stroke="#FBBE65" stroke-width="1.5" stroke-linecap="round" stroke-linejoin="round"/>
<path d="M16.875 7.97817L23.6612 6.24971" stroke="#FBBE65" stroke-width="1.5" stroke-linecap="round" stroke-linejoin="round"/>
<mask id="path-8-outside-1_0_1" maskUnits="userSpaceOnUse" x="35.936" y="1.18182" width="178" height="26" fill="black">
<rect fill="white" x="35.936" y="1.18182" width="178" height="26"/>
<path d="M37.936 25V3.18182H47.034C48.6676 3.18182 50.0348 3.41264 51.1356 3.87429C52.2436 4.33593 53.0745 4.98224 53.6285 5.81321C54.1896 6.64417 54.4701 7.60653 54.4701 8.70028C54.4701 9.53125 54.2961 10.2734 53.9481 10.9268C53.6001 11.5732 53.1207 12.1094 52.5099 12.5355C51.8991 12.9616 51.1924 13.2599 50.3899 13.4304V13.6435C51.2706 13.6861 52.0838 13.924 52.8295 14.3572C53.5823 14.7905 54.186 15.3942 54.6406 16.1683C55.0951 16.9354 55.3224 17.8445 55.3224 18.8956C55.3224 20.0675 55.0241 21.1151 54.4275 22.0384C53.8309 22.9545 52.968 23.679 51.8387 24.2116C50.7095 24.7372 49.3387 25 47.7265 25H37.936ZM43.2095 20.7493H46.4694C47.6129 20.7493 48.4545 20.5327 48.9943 20.0994C49.5411 19.6662 49.8146 19.0625 49.8146 18.2884C49.8146 17.7273 49.6832 17.2443 49.4204 16.8395C49.1576 16.4276 48.7848 16.1115 48.3018 15.8913C47.8188 15.6641 47.24 15.5504 46.5653 15.5504H43.2095V20.7493ZM43.2095 12.152H46.1285C46.7038 12.152 47.2152 12.0561 47.6626 11.8643C48.11 11.6726 48.4581 11.3956 48.7066 11.0334C48.9623 10.6712 49.0902 10.2344 49.0902 9.72301C49.0902 8.99147 48.8309 8.41619 48.3125 7.99716C47.794 7.57812 47.0944 7.36861 46.2137 7.36861H43.2095V12.152ZM64.8964 25.3089C63.1777 25.3089 61.7004 24.9574 60.4646 24.2543C59.2359 23.544 58.2877 22.5568 57.6201 21.2926C56.9596 20.0213 56.6294 18.5476 56.6294 16.8714C56.6294 15.1882 56.9596 13.7145 57.6201 12.4503C58.2877 11.179 59.2359 10.1918 60.4646 9.48863C61.7004 8.77841 63.1777 8.42329 64.8964 8.42329C66.6152 8.42329 68.0889 8.77841 69.3176 9.48863C70.5534 10.1918 71.5015 11.179 72.162 12.4503C72.8296 13.7145 73.1635 15.1882 73.1635 16.8714C73.1635 18.5476 72.8296 20.0213 72.162 21.2926C71.5015 22.5568 70.5534 23.544 69.3176 24.2543C68.0889 24.9574 66.6152 25.3089 64.8964 25.3089ZM64.9284 21.3778C65.5534 21.3778 66.0825 21.1861 66.5157 20.8026C66.949 20.419 67.2792 19.8864 67.5065 19.2045C67.7409 18.5227 67.8581 17.7344 67.8581 16.8395C67.8581 15.9304 67.7409 15.1349 67.5065 14.4531C67.2792 13.7713 66.949 13.2386 66.5157 12.8551C66.0825 12.4716 65.5534 12.2798 64.9284 12.2798C64.2821 12.2798 63.7352 12.4716 63.2877 12.8551C62.8474 13.2386 62.51 13.7713 62.2757 14.4531C62.0484 15.1349 61.9348 15.9304 61.9348 16.8395C61.9348 17.7344 62.0484 18.5227 62.2757 19.2045C62.51 19.8864 62.8474 20.419 63.2877 20.8026C63.7352 21.1861 64.2821 21.3778 64.9284 21.3778ZM82.8706 25.3089C81.1519 25.3089 79.6746 24.9574 78.4388 24.2543C77.2101 23.544 76.262 22.5568 75.5943 21.2926C74.9338 20.0213 74.6036 18.5476 74.6036 16.8714C74.6036 15.1882 74.9338 13.7145 75.5943 12.4503C76.262 11.179 77.2101 10.1918 78.4388 9.48863C79.6746 8.77841 81.1519 8.42329 82.8706 8.42329C84.5894 8.42329 86.0631 8.77841 87.2918 9.48863C88.5276 10.1918 89.4757 11.179 90.1362 12.4503C90.8039 13.7145 91.1377 15.1882 91.1377 16.8714C91.1377 18.5476 90.8039 20.0213 90.1362 21.2926C89.4757 22.5568 88.5276 23.544 87.2918 24.2543C86.0631 24.9574 84.5894 25.3089 82.8706 25.3089ZM82.9026 21.3778C83.5276 21.3778 84.0567 21.1861 84.4899 20.8026C84.9232 20.419 85.2534 19.8864 85.4807 19.2045C85.7151 18.5227 85.8323 17.7344 85.8323 16.8395C85.8323 15.9304 85.7151 15.1349 85.4807 14.4531C85.2534 13.7713 84.9232 13.2386 84.4899 12.8551C84.0567 12.4716 83.5276 12.2798 82.9026 12.2798C82.2563 12.2798 81.7094 12.4716 81.262 12.8551C80.8216 13.2386 80.4843 13.7713 80.2499 14.4531C80.0226 15.1349 79.909 15.9304 79.909 16.8395C79.909 17.7344 80.0226 18.5227 80.2499 19.2045C80.4843 19.8864 80.8216 20.419 81.262 20.8026C81.7094 21.1861 82.2563 21.3778 82.9026 21.3778ZM97.9045 20.7067L97.9258 14.4957H98.6502L103.253 8.63636H109.155L102.315 17.0312H100.941L97.9045 20.7067ZM93.2063 25V3.18182H98.4159V25H93.2063ZM103.37 25L99.087 18.2031L102.517 14.5064L109.389 25H103.37ZM115.65 25L109.3 3.18182H115.128L118.42 17.4787H118.601L122.361 3.18182H127.113L130.873 17.5107H131.054L134.357 3.18182H140.174L133.835 25H128.753L124.822 11.7685H124.652L120.721 25H115.65ZM147.575 25.3089C145.856 25.3089 144.379 24.9574 143.143 24.2543C141.914 23.544 140.966 22.5568 140.298 21.2926C139.638 20.0213 139.307 18.5476 139.307 16.8714C139.307 15.1882 139.638 13.7145 140.298 12.4503C140.966 11.179 141.914 10.1918 143.143 9.48863C144.379 8.77841 145.856 8.42329 147.575 8.42329C149.293 8.42329 150.767 8.77841 151.996 9.48863C153.231 10.1918 154.18 11.179 154.84 12.4503C155.508 13.7145 155.842 15.1882 155.842 16.8714C155.842 18.5476 155.508 20.0213 154.84 21.2926C154.18 22.5568 153.231 23.544 151.996 24.2543C150.767 24.9574 149.293 25.3089 147.575 25.3089ZM147.606 21.3778C148.231 21.3778 148.761 21.1861 149.194 20.8026C149.627 20.419 149.957 19.8864 150.185 19.2045C150.419 18.5227 150.536 17.7344 150.536 16.8395C150.536 15.9304 150.419 15.1349 150.185 14.4531C149.957 13.7713 149.627 13.2386 149.194 12.8551C148.761 12.4716 148.231 12.2798 147.606 12.2798C146.96 12.2798 146.413 12.4716 145.966 12.8551C145.526 13.2386 145.188 13.7713 144.954 14.4531C144.727 15.1349 144.613 15.9304 144.613 16.8395C144.613 17.7344 144.727 18.5227 144.954 19.2045C145.188 19.8864 145.526 20.419 145.966 20.8026C146.413 21.1861 146.96 21.3778 147.606 21.3778ZM157.91 25V8.63636H162.971V11.6193H163.141C163.439 10.5398 163.926 9.73721 164.601 9.21165C165.275 8.67898 166.06 8.41264 166.955 8.41264C167.196 8.41264 167.445 8.4304 167.701 8.46591C167.956 8.49432 168.194 8.54048 168.415 8.6044V13.1321C168.166 13.0469 167.839 12.9794 167.434 12.9297C167.037 12.88 166.682 12.8551 166.369 12.8551C165.751 12.8551 165.194 12.9936 164.696 13.2706C164.206 13.5405 163.819 13.9205 163.535 14.4105C163.258 14.8935 163.12 15.4616 163.12 16.1151V25H157.91ZM169.937 25V8.63636H174.891V11.6406H175.072C175.413 10.6463 175.988 9.8615 176.798 9.28622C177.608 8.71094 178.574 8.42329 179.696 8.42329C180.832 8.42329 181.805 8.71449 182.615 9.29687C183.424 9.87926 183.939 10.6605 184.16 11.6406H184.33C184.635 10.6676 185.232 9.88991 186.12 9.30753C187.008 8.71804 188.055 8.42329 189.262 8.42329C190.811 8.42329 192.068 8.92045 193.034 9.91477C194 10.902 194.483 12.2585 194.483 13.9844V25H189.273V15.1776C189.273 14.3608 189.064 13.7393 188.645 13.3132C188.226 12.88 187.682 12.6634 187.015 12.6634C186.297 12.6634 185.733 12.8977 185.321 13.3665C184.916 13.8281 184.714 14.4496 184.714 15.2308V25H179.706V15.1243C179.706 14.3643 179.5 13.7642 179.089 13.3239C178.677 12.8835 178.133 12.6634 177.459 12.6634C177.004 12.6634 176.603 12.7734 176.255 12.9936C175.907 13.2067 175.633 13.5121 175.434 13.9098C175.243 14.3075 175.147 14.7763 175.147 15.316V25H169.937ZM211.397 13.6328L206.613 13.7607C206.564 13.4197 206.429 13.1179 206.209 12.8551C205.988 12.5852 205.701 12.3757 205.346 12.2266C204.998 12.0703 204.593 11.9922 204.131 11.9922C203.528 11.9922 203.013 12.1129 202.587 12.3544C202.167 12.5959 201.961 12.9226 201.969 13.3345C201.961 13.6541 202.089 13.9311 202.352 14.1655C202.622 14.3999 203.101 14.5881 203.79 14.7301L206.944 15.3267C208.577 15.6392 209.792 16.1577 210.587 16.8821C211.39 17.6065 211.795 18.5653 211.802 19.7585C211.795 20.8807 211.461 21.8572 210.8 22.6882C210.147 23.5192 209.252 24.1655 208.116 24.6271C206.979 25.0817 205.68 25.3089 204.216 25.3089C201.88 25.3089 200.037 24.8295 198.687 23.8707C197.345 22.9048 196.578 21.6122 196.386 19.9929L201.532 19.8651C201.645 20.4616 201.94 20.9162 202.416 21.2287C202.892 21.5412 203.499 21.6974 204.238 21.6974C204.905 21.6974 205.449 21.5732 205.868 21.3246C206.287 21.076 206.5 20.7457 206.507 20.3338C206.5 19.9645 206.337 19.6697 206.017 19.4496C205.697 19.2223 205.197 19.0447 204.515 18.9169L201.66 18.3736C200.019 18.0753 198.797 17.5249 197.995 16.7223C197.192 15.9126 196.795 14.8828 196.802 13.6328C196.795 12.5391 197.086 11.6051 197.675 10.831C198.265 10.0497 199.103 9.45312 200.189 9.04119C201.276 8.62926 202.558 8.42329 204.035 8.42329C206.251 8.42329 207.998 8.88849 209.277 9.81889C210.555 10.7422 211.262 12.0135 211.397 13.6328Z"/>
</mask>
<path d="M37.936 25V3.18182H47.034C48.6676 3.18182 50.0348 3.41264 51.1356 3.87429C52.2436 4.33593 53.0745 4.98224 53.6285 5.81321C54.1896 6.64417 54.4701 7.60653 54.4701 8.70028C54.4701 9.53125 54.2961 10.2734 53.9481 10.9268C53.6001 11.5732 53.1207 12.1094 52.5099 12.5355C51.8991 12.9616 51.1924 13.2599 50.3899 13.4304V13.6435C51.2706 13.6861 52.0838 13.924 52.8295 14.3572C53.5823 14.7905 54.186 15.3942 54.6406 16.1683C55.0951 16.9354 55.3224 17.8445 55.3224 18.8956C55.3224 20.0675 55.0241 21.1151 54.4275 22.0384C53.8309 22.9545 52.968 23.679 51.8387 24.2116C50.7095 24.7372 49.3387 25 47.7265 25H37.936ZM43.2095 20.7493H46.4694C47.6129 20.7493 48.4545 20.5327 48.9943 20.0994C49.5411 19.6662 49.8146 19.0625 49.8146 18.2884C49.8146 17.7273 49.6832 17.2443 49.4204 16.8395C49.1576 16.4276 48.7848 16.1115 48.3018 15.8913C47.8188 15.6641 47.24 15.5504 46.5653 15.5504H43.2095V20.7493ZM43.2095 12.152H46.1285C46.7038 12.152 47.2152 12.0561 47.6626 11.8643C48.11 11.6726 48.4581 11.3956 48.7066 11.0334C48.9623 10.6712 49.0902 10.2344 49.0902 9.72301C49.0902 8.99147 48.8309 8.41619 48.3125 7.99716C47.794 7.57812 47.0944 7.36861 46.2137 7.36861H43.2095V12.152ZM64.8964 25.3089C63.1777 25.3089 61.7004 24.9574 60.4646 24.2543C59.2359 23.544 58.2877 22.5568 57.6201 21.2926C56.9596 20.0213 56.6294 18.5476 56.6294 16.8714C56.6294 15.1882 56.9596 13.7145 57.6201 12.4503C58.2877 11.179 59.2359 10.1918 60.4646 9.48863C61.7004 8.77841 63.1777 8.42329 64.8964 8.42329C66.6152 8.42329 68.0889 8.77841 69.3176 9.48863C70.5534 10.1918 71.5015 11.179 72.162 12.4503C72.8296 13.7145 73.1635 15.1882 73.1635 16.8714C73.1635 18.5476 72.8296 20.0213 72.162 21.2926C71.5015 22.5568 70.5534 23.544 69.3176 24.2543C68.0889 24.9574 66.6152 25.3089 64.8964 25.3089ZM64.9284 21.3778C65.5534 21.3778 66.0825 21.1861 66.5157 20.8026C66.949 20.419 67.2792 19.8864 67.5065 19.2045C67.7409 18.5227 67.8581 17.7344 67.8581 16.8395C67.8581 15.9304 67.7409 15.1349 67.5065 14.4531C67.2792 13.7713 66.949 13.2386 66.5157 12.8551C66.0825 12.4716 65.5534 12.2798 64.9284 12.2798C64.2821 12.2798 63.7352 12.4716 63.2877 12.8551C62.8474 13.2386 62.51 13.7713 62.2757 14.4531C62.0484 15.1349 61.9348 15.9304 61.9348 16.8395C61.9348 17.7344 62.0484 18.5227 62.2757 19.2045C62.51 19.8864 62.8474 20.419 63.2877 20.8026C63.7352 21.1861 64.2821 21.3778 64.9284 21.3778ZM82.8706 25.3089C81.1519 25.3089 79.6746 24.9574 78.4388 24.2543C77.2101 23.544 76.262 22.5568 75.5943 21.2926C74.9338 20.0213 74.6036 18.5476 74.6036 16.8714C74.6036 15.1882 74.9338 13.7145 75.5943 12.4503C76.262 11.179 77.2101 10.1918 78.4388 9.48863C79.6746 8.77841 81.1519 8.42329 82.8706 8.42329C84.5894 8.42329 86.0631 8.77841 87.2918 9.48863C88.5276 10.1918 89.4757 11.179 90.1362 12.4503C90.8039 13.7145 91.1377 15.1882 91.1377 16.8714C91.1377 18.5476 90.8039 20.0213 90.1362 21.2926C89.4757 22.5568 88.5276 23.544 87.2918 24.2543C86.0631 24.9574 84.5894 25.3089 82.8706 25.3089ZM82.9026 21.3778C83.5276 21.3778 84.0567 21.1861 84.4899 20.8026C84.9232 20.419 85.2534 19.8864 85.4807 19.2045C85.7151 18.5227 85.8323 17.7344 85.8323 16.8395C85.8323 15.9304 85.7151 15.1349 85.4807 14.4531C85.2534 13.7713 84.9232 13.2386 84.4899 12.8551C84.0567 12.4716 83.5276 12.2798 82.9026 12.2798C82.2563 12.2798 81.7094 12.4716 81.262 12.8551C80.8216 13.2386 80.4843 13.7713 80.2499 14.4531C80.0226 15.1349 79.909 15.9304 79.909 16.8395C79.909 17.7344 80.0226 18.5227 80.2499 19.2045C80.4843 19.8864 80.8216 20.419 81.262 20.8026C81.7094 21.1861 82.2563 21.3778 82.9026 21.3778ZM97.9045 20.7067L97.9258 14.4957H98.6502L103.253 8.63636H109.155L102.315 17.0312H100.941L97.9045 20.7067ZM93.2063 25V3.18182H98.4159V25H93.2063ZM103.37 25L99.087 18.2031L102.517 14.5064L109.389 25H103.37ZM115.65 25L109.3 3.18182H115.128L118.42 17.4787H118.601L122.361 3.18182H127.113L130.873 17.5107H131.054L134.357 3.18182H140.174L133.835 25H128.753L124.822 11.7685H124.652L120.721 25H115.65ZM147.575 25.3089C145.856 25.3089 144.379 24.9574 143.143 24.2543C141.914 23.544 140.966 22.5568 140.298 21.2926C139.638 20.0213 139.307 18.5476 139.307 16.8714C139.307 15.1882 139.638 13.7145 140.298 12.4503C140.966 11.179 141.914 10.1918 143.143 9.48863C144.379 8.77841 145.856 8.42329 147.575 8.42329C149.293 8.42329 150.767 8.77841 151.996 9.48863C153.231 10.1918 154.18 11.179 154.84 12.4503C155.508 13.7145 155.842 15.1882 155.842 16.8714C155.842 18.5476 155.508 20.0213 154.84 21.2926C154.18 22.5568 153.231 23.544 151.996 24.2543C150.767 24.9574 149.293 25.3089 147.575 25.3089ZM147.606 21.3778C148.231 21.3778 148.761 21.1861 149.194 20.8026C149.627 20.419 149.957 19.8864 150.185 19.2045C150.419 18.5227 150.536 17.7344 150.536 16.8395C150.536 15.9304 150.419 15.1349 150.185 14.4531C149.957 13.7713 149.627 13.2386 149.194 12.8551C148.761 12.4716 148.231 12.2798 147.606 12.2798C146.96 12.2798 146.413 12.4716 145.966 12.8551C145.526 13.2386 145.188 13.7713 144.954 14.4531C144.727 15.1349 144.613 15.9304 144.613 16.8395C144.613 17.7344 144.727 18.5227 144.954 19.2045C145.188 19.8864 145.526 20.419 145.966 20.8026C146.413 21.1861 146.96 21.3778 147.606 21.3778ZM157.91 25V8.63636H162.971V11.6193H163.141C163.439 10.5398 163.926 9.73721 164.601 9.21165C165.275 8.67898 166.06 8.41264 166.955 8.41264C167.196 8.41264 167.445 8.4304 167.701 8.46591C167.956 8.49432 168.194 8.54048 168.415 8.6044V13.1321C168.166 13.0469 167.839 12.9794 167.434 12.9297C167.037 12.88 166.682 12.8551 166.369 12.8551C165.751 12.8551 165.194 12.9936 164.696 13.2706C164.206 13.5405 163.819 13.9205 163.535 14.4105C163.258 14.8935 163.12 15.4616 163.12 16.1151V25H157.91ZM169.937 25V8.63636H174.891V11.6406H175.072C175.413 10.6463 175.988 9.8615 176.798 9.28622C177.608 8.71094 178.574 8.42329 179.696 8.42329C180.832 8.42329 181.805 8.71449 182.615 9.29687C183.424 9.87926 183.939 10.6605 184.16 11.6406H184.33C184.635 10.6676 185.232 9.88991 186.12 9.30753C187.008 8.71804 188.055 8.42329 189.262 8.42329C190.811 8.42329 192.068 8.92045 193.034 9.91477C194 10.902 194.483 12.2585 194.483 13.9844V25H189.273V15.1776C189.273 14.3608 189.064 13.7393 188.645 13.3132C188.226 12.88 187.682 12.6634 187.015 12.6634C186.297 12.6634 185.733 12.8977 185.321 13.3665C184.916 13.8281 184.714 14.4496 184.714 15.2308V25H179.706V15.1243C179.706 14.3643 179.5 13.7642 179.089 13.3239C178.677 12.8835 178.133 12.6634 177.459 12.6634C177.004 12.6634 176.603 12.7734 176.255 12.9936C175.907 13.2067 175.633 13.5121 175.434 13.9098C175.243 14.3075 175.147 14.7763 175.147 15.316V25H169.937ZM211.397 13.6328L206.613 13.7607C206.564 13.4197 206.429 13.1179 206.209 12.8551C205.988 12.5852 205.701 12.3757 205.346 12.2266C204.998 12.0703 204.593 11.9922 204.131 11.9922C203.528 11.9922 203.013 12.1129 202.587 12.3544C202.167 12.5959 201.961 12.9226 201.969 13.3345C201.961 13.6541 202.089 13.9311 202.352 14.1655C202.622 14.3999 203.101 14.5881 203.79 14.7301L206.944 15.3267C208.577 15.6392 209.792 16.1577 210.587 16.8821C211.39 17.6065 211.795 18.5653 211.802 19.7585C211.795 20.8807 211.461 21.8572 210.8 22.6882C210.147 23.5192 209.252 24.1655 208.116 24.6271C206.979 25.0817 205.68 25.3089 204.216 25.3089C201.88 25.3089 200.037 24.8295 198.687 23.8707C197.345 22.9048 196.578 21.6122 196.386 19.9929L201.532 19.8651C201.645 20.4616 201.94 20.9162 202.416 21.2287C202.892 21.5412 203.499 21.6974 204.238 21.6974C204.905 21.6974 205.449 21.5732 205.868 21.3246C206.287 21.076 206.5 20.7457 206.507 20.3338C206.5 19.9645 206.337 19.6697 206.017 19.4496C205.697 19.2223 205.197 19.0447 204.515 18.9169L201.66 18.3736C200.019 18.0753 198.797 17.5249 197.995 16.7223C197.192 15.9126 196.795 14.8828 196.802 13.6328C196.795 12.5391 197.086 11.6051 197.675 10.831C198.265 10.0497 199.103 9.45312 200.189 9.04119C201.276 8.62926 202.558 8.42329 204.035 8.42329C206.251 8.42329 207.998 8.88849 209.277 9.81889C210.555 10.7422 211.262 12.0135 211.397 13.6328Z" stroke="#FFFCF8" stroke-width="3" stroke-linejoin="round" mask="url(#path-8-outside-1_0_1)"/>
</svg>
